<svg viewBox="0 0 197.1 48.34" xmlns="http://www.w3.org/2000/svg"><g fill="#bf1146"><path d="m17.13 31.21h-8.56v8.56h17.13v-25.7h-8.57z"/><path d="m17.13 0h8.57v8.57h-8.57z"/><path d="m0 39.77h8.57v8.57h-8.57z"/></g><path d="m51.11 22.24h-5.41l-1.57-4.9h-7.84l-1.55 4.9h-5.38l8.03-22.03h5.89l7.84 22.03zm-8.11-8.71-2.37-7.41c-.17-.55-.3-1.21-.37-1.98h-.12c-.05.64-.18 1.29-.38 1.92l-2.4 7.47z"/><path d="m58.13 14.65v7.59h-4.96v-22.03h7.77c5.55 0 8.33 2.34 8.33 7.02 0 2.21-.8 4-2.39 5.37s-3.72 2.05-6.38 2.05zm0-10.63v6.87h1.95c2.64 0 3.96-1.16 3.96-3.47s-1.32-3.4-3.96-3.4z"/><path d="m89.15 22.24h-5.41l-1.57-4.9h-7.84l-1.55 4.9h-5.38l8.03-22.03h5.89l7.84 22.03zm-8.11-8.71-2.37-7.41c-.17-.55-.3-1.21-.37-1.98h-.12c-.05.64-.18 1.29-.38 1.92l-2.4 7.47z"/><path d="m111.03 22.24h-5.01l-9.08-13.84c-.53-.81-.9-1.42-1.11-1.83h-.06c.08.78.12 1.97.12 3.56v12.11h-4.69v-22.03h5.35l8.74 13.41c.4.6.77 1.2 1.11 1.8h.06c-.08-.51-.12-1.52-.12-3.03v-12.18h4.69z"/><path d="m152.04.21-5.82 22.03h-5.5l-3.66-14.14c-.19-.74-.31-1.56-.35-2.47h-.06c-.09 1-.23 1.83-.4 2.47l-3.75 14.14h-5.73l-5.79-22.03h5.42l3.1 14.67c.13.62.23 1.46.29 2.52h.09c.04-.79.19-1.65.45-2.58l3.99-14.61h5.32l3.61 14.8c.13.54.25 1.33.35 2.37h.06c.04-.81.15-1.63.32-2.46l3.04-14.7h5.01z"/><path d="m159.16 22.24h-4.86v-14.55h4.86v14.56z"/><path d="m181.89 22.24h-5.7l-3.43-5.67c-.26-.43-.5-.81-.74-1.15s-.47-.63-.71-.87-.49-.42-.75-.55-.55-.19-.85-.19h-1.34v8.44h-4.96v-22.04h7.87c5.35 0 8.02 2 8.02 5.99 0 .77-.12 1.48-.35 2.13s-.57 1.24-1 1.76-.95.97-1.56 1.35-1.29.68-2.04.89v.06c.33.1.64.27.95.5s.6.5.89.81.56.64.82.99.5.7.71 1.04l4.16 6.51zm-13.52-18.31v6.13h2.15c1.06 0 1.92-.31 2.57-.92.66-.62.98-1.4.98-2.32 0-1.93-1.15-2.89-3.46-2.89z"/><path d="m197.1 22.24h-13.21v-22.03h12.71v4.04h-7.74v4.9h7.21v4.03h-7.21v5.04h8.25v4.03z"/><path d="m50.43 39.56h-.04v1.09h-2.9v-13.93h2.9v5.94h.04c.72-1.1 1.74-1.64 3.06-1.64 1.21 0 2.15.42 2.8 1.25.66.83.98 1.97.98 3.42 0 1.57-.38 2.83-1.15 3.78s-1.79 1.42-3.07 1.42c-1.16 0-2.03-.44-2.63-1.32zm-.08-3.97v.96c0 .61.17 1.11.52 1.51s.8.6 1.34.6c.66 0 1.17-.26 1.54-.77.36-.51.55-1.24.55-2.17 0-.78-.17-1.39-.5-1.82-.33-.44-.81-.66-1.43-.66-.58 0-1.06.22-1.45.65-.38.44-.57 1-.57 1.7z"/><path d="m67.89 31.24-3.82 10.16c-.92 2.44-2.3 3.67-4.15 3.67-.7 0-1.28-.08-1.74-.24v-2.32c.39.23.81.34 1.26.34.75 0 1.27-.35 1.56-1.06l.5-1.17-3.82-9.39h3.22l1.75 5.72c.11.35.2.77.26 1.26h.04c.06-.35.16-.77.3-1.24l1.77-5.74h2.88z"/><path d="m85.49 40.65h-3.75l-3.84-5.72c-.07-.11-.19-.35-.35-.73h-.05v6.45h-2.97v-13.17h2.97v6.23h.05c.07-.17.2-.42.37-.74l3.64-5.49h3.54l-4.59 6.28 4.99 6.89z"/><path d="m94.6 31.24-3.82 10.16c-.92 2.44-2.3 3.67-4.15 3.67-.7 0-1.28-.08-1.74-.24v-2.32c.39.23.81.34 1.26.34.75 0 1.27-.35 1.56-1.06l.5-1.17-3.82-9.39h3.22l1.75 5.72c.11.35.2.77.26 1.26h.04c.06-.35.16-.77.3-1.24l1.77-5.74h2.88z"/><path d="m99.97 40.88c-1.57 0-2.8-.44-3.7-1.32s-1.35-2.07-1.35-3.58.47-2.77 1.4-3.65 2.19-1.32 3.78-1.32 2.79.44 3.67 1.32c.89.88 1.33 2.04 1.33 3.49 0 1.56-.46 2.8-1.37 3.7s-2.17 1.36-3.76 1.36zm.08-7.64c-.69 0-1.22.24-1.6.71s-.57 1.14-.57 2c0 1.81.73 2.71 2.19 2.71s2.09-.93 2.09-2.78c0-1.76-.7-2.64-2.1-2.64z"/><path d="m116.21 40.65h-2.9v-1.3h-.04c-.66 1.02-1.63 1.53-2.91 1.53-1.18 0-2.12-.41-2.84-1.24s-1.07-1.99-1.07-3.48.4-2.8 1.19-3.74 1.83-1.41 3.11-1.41c1.21 0 2.06.44 2.54 1.31h.04v-5.6h2.9v13.93zm-2.85-4.57v-.71c0-.61-.18-1.12-.53-1.53-.35-.4-.82-.61-1.39-.61-.64 0-1.14.25-1.51.76-.36.5-.54 1.2-.54 2.08 0 .83.17 1.46.52 1.91s.83.67 1.45.67 1.07-.24 1.44-.71.56-1.1.56-1.87z"/><path d="m123.07 40.88c-1.57 0-2.8-.44-3.7-1.32s-1.35-2.07-1.35-3.58.47-2.77 1.4-3.65 2.19-1.32 3.78-1.32 2.79.44 3.67 1.32c.89.88 1.33 2.04 1.33 3.49 0 1.56-.46 2.8-1.37 3.7s-2.17 1.36-3.76 1.36zm.08-7.64c-.69 0-1.22.24-1.6.71s-.57 1.14-.57 2c0 1.81.73 2.71 2.19 2.71s2.09-.93 2.09-2.78c0-1.76-.7-2.64-2.1-2.64z"/><path d="m147.42 40.65h-3l-5.43-8.28c-.32-.48-.54-.85-.66-1.09h-.04c.05.47.07 1.18.07 2.13v7.24h-2.8v-13.17h3.2l5.23 8.02c.24.36.46.72.66 1.07h.04c-.05-.31-.07-.91-.07-1.81v-7.29h2.8v13.17z"/><path d="m158.53 36.77h-6.14c.1 1.37.96 2.05 2.58 2.05 1.04 0 1.94-.24 2.73-.74v2.09c-.87.47-2 .7-3.39.7-1.52 0-2.7-.42-3.54-1.26s-1.26-2.02-1.26-3.52.45-2.8 1.36-3.71 2.02-1.37 3.34-1.37 2.43.41 3.18 1.22 1.13 1.92 1.13 3.32v1.22zm-2.7-1.78c0-1.35-.55-2.02-1.64-2.02-.47 0-.87.19-1.21.58s-.55.87-.62 1.44h3.46z"/><path d="m173.77 31.24-2.71 9.41h-3.05l-1.39-5.51c-.09-.37-.14-.77-.16-1.2h-.06c-.04.48-.1.87-.18 1.17l-1.49 5.55h-3.01l-2.65-9.41h2.96l1.3 6.14c.06.29.11.64.14 1.05h.05c.03-.43.09-.79.17-1.08l1.62-6.1h2.77l1.45 6.14c.04.15.08.51.13 1.07h.06c.03-.35.08-.71.15-1.07l1.22-6.14h2.69z"/><path d="m174.5 40.4v-2.35c.48.29.95.5 1.43.64.47.14.92.21 1.35.21.52 0 .92-.07 1.22-.21s.45-.35.45-.64c0-.18-.07-.34-.2-.46s-.31-.23-.52-.32-.44-.17-.69-.25c-.25-.07-.49-.16-.73-.25-.37-.14-.7-.29-.99-.45s-.52-.35-.72-.56c-.19-.21-.34-.46-.44-.74s-.15-.62-.15-1c0-.53.11-.98.34-1.36s.54-.69.92-.93.82-.42 1.31-.53 1.01-.17 1.54-.17c.42 0 .84.03 1.27.1s.85.16 1.27.28v2.24c-.37-.21-.76-.38-1.18-.48-.42-.11-.83-.16-1.24-.16-.19 0-.37.02-.54.05s-.32.08-.45.15-.23.15-.3.25-.11.22-.11.34c0 .17.05.32.17.44.11.12.25.23.43.32s.37.17.59.24.43.14.65.22c.39.13.74.28 1.05.44s.58.35.8.56.4.47.52.75c.12.29.18.63.18 1.03 0 .56-.12 1.03-.36 1.43-.24.39-.56.72-.97.96-.4.25-.86.43-1.39.54-.52.11-1.07.17-1.63.17-1.04 0-1.99-.16-2.88-.48z"/><path d="m159.16 5.07h-4.86v-4.86h4.86z"/></svg>